<mxfile host="app.diagrams.net" modified="2024-04-16T08:17:10.329Z" agent="Mozilla/5.0 (Windows NT 10.0; Win64; x64) AppleWebKit/537.36 (KHTML, like Gecko) Chrome/123.0.0.0 Safari/537.36" etag="bvNSu6-DDS2mjbfay4k1" version="24.2.5" type="github">
  <diagram id="R2lEEEUBdFMjLlhIrx00" name="Page-1">
    <mxGraphModel dx="2284" dy="1884" grid="1" gridSize="10" guides="1" tooltips="1" connect="1" arrows="1" fold="1" page="1" pageScale="1" pageWidth="850" pageHeight="1100" math="0" shadow="0" extFonts="Permanent Marker^https://fonts.googleapis.com/css?family=Permanent+Marker">
      <root>
        <mxCell id="0" />
        <mxCell id="1" parent="0" />
        <mxCell id="lJdPWpP_AhthNzz1HLUO-6" style="edgeStyle=orthogonalEdgeStyle;rounded=0;orthogonalLoop=1;jettySize=auto;html=1;exitX=0.75;exitY=0;exitDx=0;exitDy=0;entryX=0.5;entryY=1;entryDx=0;entryDy=0;" edge="1" parent="1" source="lJdPWpP_AhthNzz1HLUO-1" target="lJdPWpP_AhthNzz1HLUO-5">
          <mxGeometry relative="1" as="geometry" />
        </mxCell>
        <mxCell id="lJdPWpP_AhthNzz1HLUO-9" style="edgeStyle=orthogonalEdgeStyle;rounded=0;orthogonalLoop=1;jettySize=auto;html=1;exitX=1;exitY=0.5;exitDx=0;exitDy=0;entryX=0;entryY=0.5;entryDx=0;entryDy=0;" edge="1" parent="1" source="lJdPWpP_AhthNzz1HLUO-1" target="lJdPWpP_AhthNzz1HLUO-8">
          <mxGeometry relative="1" as="geometry" />
        </mxCell>
        <mxCell id="lJdPWpP_AhthNzz1HLUO-11" style="edgeStyle=orthogonalEdgeStyle;rounded=0;orthogonalLoop=1;jettySize=auto;html=1;exitX=0.75;exitY=1;exitDx=0;exitDy=0;entryX=0;entryY=0.5;entryDx=0;entryDy=0;" edge="1" parent="1" source="lJdPWpP_AhthNzz1HLUO-1" target="lJdPWpP_AhthNzz1HLUO-10">
          <mxGeometry relative="1" as="geometry" />
        </mxCell>
        <mxCell id="lJdPWpP_AhthNzz1HLUO-1" value="Productos" style="rounded=0;whiteSpace=wrap;html=1;" vertex="1" parent="1">
          <mxGeometry x="-190" y="-75" width="90" height="60" as="geometry" />
        </mxCell>
        <mxCell id="lJdPWpP_AhthNzz1HLUO-2" value="nombre" style="ellipse;whiteSpace=wrap;html=1;" vertex="1" parent="1">
          <mxGeometry x="-150" y="-170" width="90" height="40" as="geometry" />
        </mxCell>
        <mxCell id="lJdPWpP_AhthNzz1HLUO-4" style="edgeStyle=orthogonalEdgeStyle;rounded=0;orthogonalLoop=1;jettySize=auto;html=1;exitX=1;exitY=0;exitDx=0;exitDy=0;entryX=0.056;entryY=0.675;entryDx=0;entryDy=0;entryPerimeter=0;" edge="1" parent="1" source="lJdPWpP_AhthNzz1HLUO-1" target="lJdPWpP_AhthNzz1HLUO-2">
          <mxGeometry relative="1" as="geometry" />
        </mxCell>
        <mxCell id="lJdPWpP_AhthNzz1HLUO-5" value="&lt;u&gt;id&lt;/u&gt;" style="ellipse;whiteSpace=wrap;html=1;" vertex="1" parent="1">
          <mxGeometry x="-190" y="-120" width="30" height="20" as="geometry" />
        </mxCell>
        <mxCell id="lJdPWpP_AhthNzz1HLUO-8" value="descripcion" style="ellipse;whiteSpace=wrap;html=1;" vertex="1" parent="1">
          <mxGeometry x="-60" y="20" width="80" height="40" as="geometry" />
        </mxCell>
        <mxCell id="lJdPWpP_AhthNzz1HLUO-10" value="precio" style="ellipse;whiteSpace=wrap;html=1;" vertex="1" parent="1">
          <mxGeometry x="-205" y="40" width="60" height="50" as="geometry" />
        </mxCell>
        <mxCell id="lJdPWpP_AhthNzz1HLUO-14" style="edgeStyle=orthogonalEdgeStyle;rounded=0;orthogonalLoop=1;jettySize=auto;html=1;exitX=0.75;exitY=0;exitDx=0;exitDy=0;entryX=0;entryY=0.5;entryDx=0;entryDy=0;" edge="1" parent="1" source="lJdPWpP_AhthNzz1HLUO-12" target="lJdPWpP_AhthNzz1HLUO-13">
          <mxGeometry relative="1" as="geometry" />
        </mxCell>
        <mxCell id="lJdPWpP_AhthNzz1HLUO-17" style="edgeStyle=orthogonalEdgeStyle;rounded=0;orthogonalLoop=1;jettySize=auto;html=1;exitX=1;exitY=0.5;exitDx=0;exitDy=0;entryX=0;entryY=0.5;entryDx=0;entryDy=0;" edge="1" parent="1" source="lJdPWpP_AhthNzz1HLUO-12" target="lJdPWpP_AhthNzz1HLUO-15">
          <mxGeometry relative="1" as="geometry" />
        </mxCell>
        <mxCell id="lJdPWpP_AhthNzz1HLUO-12" value="Categorías" style="rounded=0;whiteSpace=wrap;html=1;" vertex="1" parent="1">
          <mxGeometry x="330" y="-80" width="80" height="60" as="geometry" />
        </mxCell>
        <mxCell id="lJdPWpP_AhthNzz1HLUO-13" value="&lt;u&gt;id&lt;/u&gt;" style="ellipse;whiteSpace=wrap;html=1;" vertex="1" parent="1">
          <mxGeometry x="410" y="-120" width="40" height="20" as="geometry" />
        </mxCell>
        <mxCell id="lJdPWpP_AhthNzz1HLUO-15" value="nombre" style="ellipse;whiteSpace=wrap;html=1;" vertex="1" parent="1">
          <mxGeometry x="440" y="-70" width="60" height="50" as="geometry" />
        </mxCell>
        <mxCell id="lJdPWpP_AhthNzz1HLUO-31" style="edgeStyle=orthogonalEdgeStyle;rounded=0;orthogonalLoop=1;jettySize=auto;html=1;exitX=0.75;exitY=0;exitDx=0;exitDy=0;entryX=0;entryY=0.5;entryDx=0;entryDy=0;" edge="1" parent="1" source="lJdPWpP_AhthNzz1HLUO-29" target="lJdPWpP_AhthNzz1HLUO-30">
          <mxGeometry relative="1" as="geometry" />
        </mxCell>
        <mxCell id="lJdPWpP_AhthNzz1HLUO-54" style="edgeStyle=orthogonalEdgeStyle;rounded=0;orthogonalLoop=1;jettySize=auto;html=1;exitX=0.75;exitY=1;exitDx=0;exitDy=0;entryX=0;entryY=0;entryDx=0;entryDy=0;" edge="1" parent="1" source="lJdPWpP_AhthNzz1HLUO-29" target="lJdPWpP_AhthNzz1HLUO-53">
          <mxGeometry relative="1" as="geometry" />
        </mxCell>
        <mxCell id="lJdPWpP_AhthNzz1HLUO-29" value="Pedidos" style="rounded=0;whiteSpace=wrap;html=1;" vertex="1" parent="1">
          <mxGeometry x="-200" y="240" width="120" height="60" as="geometry" />
        </mxCell>
        <mxCell id="lJdPWpP_AhthNzz1HLUO-30" value="&lt;u&gt;id&lt;/u&gt;" style="ellipse;whiteSpace=wrap;html=1;" vertex="1" parent="1">
          <mxGeometry x="-80" y="170" width="30" height="30" as="geometry" />
        </mxCell>
        <mxCell id="lJdPWpP_AhthNzz1HLUO-32" value="" style="edgeStyle=entityRelationEdgeStyle;fontSize=12;html=1;endArrow=ERoneToMany;rounded=0;exitX=0.342;exitY=-0.017;exitDx=0;exitDy=0;exitPerimeter=0;entryX=0.5;entryY=1;entryDx=0;entryDy=0;" edge="1" parent="1" source="lJdPWpP_AhthNzz1HLUO-29" target="lJdPWpP_AhthNzz1HLUO-1">
          <mxGeometry width="100" height="100" relative="1" as="geometry">
            <mxPoint x="-160" y="220" as="sourcePoint" />
            <mxPoint x="-60" y="120" as="targetPoint" />
          </mxGeometry>
        </mxCell>
        <mxCell id="lJdPWpP_AhthNzz1HLUO-35" style="edgeStyle=orthogonalEdgeStyle;rounded=0;orthogonalLoop=1;jettySize=auto;html=1;exitX=0.75;exitY=0;exitDx=0;exitDy=0;entryX=0;entryY=0.5;entryDx=0;entryDy=0;" edge="1" parent="1" source="lJdPWpP_AhthNzz1HLUO-33" target="lJdPWpP_AhthNzz1HLUO-34">
          <mxGeometry relative="1" as="geometry" />
        </mxCell>
        <mxCell id="lJdPWpP_AhthNzz1HLUO-38" style="edgeStyle=orthogonalEdgeStyle;rounded=0;orthogonalLoop=1;jettySize=auto;html=1;exitX=1;exitY=0.5;exitDx=0;exitDy=0;" edge="1" parent="1" source="lJdPWpP_AhthNzz1HLUO-33" target="lJdPWpP_AhthNzz1HLUO-36">
          <mxGeometry relative="1" as="geometry" />
        </mxCell>
        <mxCell id="lJdPWpP_AhthNzz1HLUO-40" style="edgeStyle=orthogonalEdgeStyle;rounded=0;orthogonalLoop=1;jettySize=auto;html=1;exitX=0.75;exitY=1;exitDx=0;exitDy=0;" edge="1" parent="1" source="lJdPWpP_AhthNzz1HLUO-33" target="lJdPWpP_AhthNzz1HLUO-39">
          <mxGeometry relative="1" as="geometry" />
        </mxCell>
        <mxCell id="lJdPWpP_AhthNzz1HLUO-42" style="edgeStyle=orthogonalEdgeStyle;rounded=0;orthogonalLoop=1;jettySize=auto;html=1;exitX=0.5;exitY=1;exitDx=0;exitDy=0;entryX=0.5;entryY=0;entryDx=0;entryDy=0;" edge="1" parent="1" source="lJdPWpP_AhthNzz1HLUO-33" target="lJdPWpP_AhthNzz1HLUO-41">
          <mxGeometry relative="1" as="geometry" />
        </mxCell>
        <mxCell id="lJdPWpP_AhthNzz1HLUO-33" value="Clientes" style="rounded=0;whiteSpace=wrap;html=1;" vertex="1" parent="1">
          <mxGeometry x="300" y="250" width="120" height="60" as="geometry" />
        </mxCell>
        <mxCell id="lJdPWpP_AhthNzz1HLUO-34" value="&lt;u&gt;id&lt;/u&gt;" style="ellipse;whiteSpace=wrap;html=1;" vertex="1" parent="1">
          <mxGeometry x="450" y="210" width="30" height="40" as="geometry" />
        </mxCell>
        <mxCell id="lJdPWpP_AhthNzz1HLUO-36" value="nombre" style="ellipse;whiteSpace=wrap;html=1;" vertex="1" parent="1">
          <mxGeometry x="445" y="260" width="50" height="40" as="geometry" />
        </mxCell>
        <mxCell id="lJdPWpP_AhthNzz1HLUO-39" value="dirección" style="ellipse;whiteSpace=wrap;html=1;" vertex="1" parent="1">
          <mxGeometry x="600" y="310" width="50" height="50" as="geometry" />
        </mxCell>
        <mxCell id="lJdPWpP_AhthNzz1HLUO-41" value="email" style="ellipse;whiteSpace=wrap;html=1;" vertex="1" parent="1">
          <mxGeometry x="350" y="370" width="40" height="40" as="geometry" />
        </mxCell>
        <mxCell id="lJdPWpP_AhthNzz1HLUO-49" value="" style="edgeStyle=entityRelationEdgeStyle;fontSize=12;html=1;endArrow=ERoneToMany;rounded=0;entryX=1;entryY=0.5;entryDx=0;entryDy=0;exitX=0.017;exitY=0.4;exitDx=0;exitDy=0;exitPerimeter=0;" edge="1" parent="1" source="lJdPWpP_AhthNzz1HLUO-33" target="lJdPWpP_AhthNzz1HLUO-29">
          <mxGeometry width="100" height="100" relative="1" as="geometry">
            <mxPoint x="90" y="310" as="sourcePoint" />
            <mxPoint x="190" y="210" as="targetPoint" />
            <Array as="points">
              <mxPoint x="150" y="230" />
            </Array>
          </mxGeometry>
        </mxCell>
        <mxCell id="lJdPWpP_AhthNzz1HLUO-50" value="" style="edgeStyle=entityRelationEdgeStyle;fontSize=12;html=1;endArrow=ERoneToMany;rounded=0;entryX=1;entryY=0.25;entryDx=0;entryDy=0;exitX=0;exitY=0.5;exitDx=0;exitDy=0;" edge="1" parent="1" source="lJdPWpP_AhthNzz1HLUO-12" target="lJdPWpP_AhthNzz1HLUO-1">
          <mxGeometry width="100" height="100" relative="1" as="geometry">
            <mxPoint x="90" y="50" as="sourcePoint" />
            <mxPoint x="190" y="-50" as="targetPoint" />
          </mxGeometry>
        </mxCell>
        <mxCell id="lJdPWpP_AhthNzz1HLUO-53" value="fecha" style="ellipse;whiteSpace=wrap;html=1;align=center;" vertex="1" parent="1">
          <mxGeometry x="-120" y="330" width="50" height="40" as="geometry" />
        </mxCell>
      </root>
    </mxGraphModel>
  </diagram>
</mxfile>
